<svg width="220" height="88" viewBox="0 0 220 88" fill="none" xmlns="http://www.w3.org/2000/svg">
<path d="M47.5766 4.38755C51.1101 5.06138 54.5548 6.13772 57.8433 7.59551C57.8433 7.59551 21.3264 7.62671 0.3125 23.9972C24.3783 24.1033 55.1097 29.3396 62.986 31.7487C55.8211 34.7819 47.8949 41.7345 44.2626 46.9209C52.5945 46.2032 60.0838 45.8287 67.0739 45.7475C86.5775 45.5166 81.7655 74.0885 99.2282 78.0329C102.532 78.5339 105.884 78.6471 109.214 78.37C113.708 78.6383 110.231 60.3206 114.057 60.8199C145.743 64.964 155.317 75.8423 155.398 75.7424C155.398 75.7424 169.429 61.6625 179.839 58.2049C187.69 55.5961 200.896 56.8193 204.497 56.7507C208.473 56.6695 209.721 55.7771 215.145 65.2324C215.145 65.2324 216.924 62.4488 218.228 57.0066C219.003 53.6831 219.003 50.2257 218.228 46.9022C217.51 44.206 216.936 42.24 205.49 36.5918C200.837 34.2696 196.026 32.2799 191.091 30.6378C186.829 29.1634 182.399 28.2283 177.904 27.8542C175.564 27.692 175.195 27.486 175.027 27.3799C172.25 25.5076 171.132 26.3751 171.132 26.3751C168.087 19.6034 149.139 7.50188 112.984 2.92713C90.2785 0.0562078 70.6938 -0.823795 47.5766 4.38755Z" fill="black"/>
<path d="M172.293 37.8089C171.425 58.7042 157.414 58.492 154.35 62.4676C154.35 62.4676 143.016 56.1204 118.775 56.6821C122.912 54.2841 127.461 52.6797 132.187 51.9513C126.518 49.5317 120.695 47.4906 114.756 45.8412C106.973 43.6568 112.303 30.2946 104.876 29.3022C90.3156 27.355 64.0841 39.3317 55.5275 40.7485C61.6875 35.6744 68.9148 32.7223 77.7584 31.6489C69.7636 28.8404 58.6793 26.656 49.4924 24.5777C37.8252 22.0424 25.9367 20.6627 13.999 20.4585C21.1389 16.2458 39.0447 12.5448 49.2177 11.7521C61.6398 10.8555 74.1259 11.6025 86.3525 13.974C86.3525 13.974 75.7426 7.8764 59.1973 5.49852C81.7653 2.65257 97.6489 3.25796 117.677 5.56094C150.206 9.30562 169.191 23.3919 170.876 28.0727C171.922 31.2085 172.401 34.5052 172.293 37.8089Z" fill="url(#paint0_linear)"/>
<path d="M55.527 40.7483C60.1891 36.0799 67.822 32.8096 76.6657 31.7361C68.6708 28.9276 60.5324 26.8493 49.4731 24.7398C37.7805 22.4268 25.9305 20.9956 14.0234 20.4584C24.365 17.6311 36.6663 16.6513 46.858 17.0757C66.9295 17.9057 82.6759 22.1809 95.8946 31.7985C95.8697 31.7985 65.2007 35.2686 55.527 40.7483Z" fill="#5E000E"/>
<path d="M175.157 28.4721C174.177 28.341 173.079 26.5997 171.637 27.124C171.121 27.3051 170.615 27.5134 170.121 27.7481C170.121 27.7481 166.139 28.6281 165.409 37.8712C164.785 46.1282 164.585 54.6536 164.585 54.6536C162.088 55.5898 158.699 59.1972 156.109 64.1027C154.505 67.1422 157.638 69.9257 157.638 69.9257C157.638 69.9257 170.62 58.2673 179.42 55.8395C184.85 54.3353 205.233 54.4539 208.597 54.8409C211.406 55.958 214.333 59.659 215.013 61.781C216.349 58.6292 217.279 55.9331 217.21 52.8188C217.048 45.5291 217.834 44.0812 203.099 36.6854C192.476 31.3555 184.987 29.7265 175.157 28.4721Z" fill="#D9D0AF"/>
<path d="M158.194 69.7508C158.194 69.7508 154.668 65.0263 156.74 61.3378C158.812 57.6492 163.606 56.064 163.606 56.064L164.298 42.3335C164.298 42.3335 167.419 48.4498 178.541 44.9673C181.068 44.1746 186.124 43.3883 190.255 44.1746C194.387 44.961 209.334 48.3687 211.625 49.4484C215.525 51.3207 215.744 52.569 215.744 59.7213C215.6 60.3897 215.402 61.0451 215.151 61.681C215.151 61.681 212.723 57.1624 209.378 55.1341C208.217 54.4288 200.528 54.5099 191.154 54.6785C176.662 54.9156 173.941 58.0799 169.366 61.2192C165.06 64.2399 158.194 69.7508 158.194 69.7508Z" fill="#BEAD80"/>
<path d="M159.137 64.5269C159.112 64.5768 159.137 64.5269 159.137 64.5269V64.5269ZM158.55 70.768C158.55 70.768 157.127 68.1654 157.333 65.9311C157.539 63.6968 159.112 62.2925 160.36 60.8196C163.006 58.8911 181.305 49.6168 186.76 49.0364C190.542 48.6369 194.618 48.7181 202.557 50.4094C210.377 52.082 212.006 52.8247 212.461 53.9107C213.466 56.2886 215.17 62.4049 215.17 62.4049C215.17 62.4049 214.546 57.5867 213.922 55.0466C213.21 52.0945 213.653 51.0086 205.09 49.3359C195.679 47.501 189.537 46.3027 187.266 46.5711C181.362 47.2701 166.333 53.1181 164.604 54.0605C164.642 52.469 164.991 40.0803 166.164 34.014C167.219 28.5842 170.883 27.467 170.883 27.467C170.883 27.467 171.569 26.4809 170.596 26.7618C168.823 27.2798 166.077 28.9212 164.71 34.1013C164.71 34.1013 160.828 31.3365 151.879 29.2083C146.708 27.9392 141.383 27.4118 136.063 27.6418C136.063 27.6418 149.719 33.7206 154.481 38.4452C159.243 43.1697 157.895 43.2883 157.895 43.2883C155.778 43.2499 153.721 43.997 152.122 45.3853C154.436 44.6232 156.916 44.5173 159.287 45.0795C162.02 45.61 163.031 46.2154 163.306 46.3901C163.088 50.3595 163.031 53.5487 163.031 53.5487C161.663 53.7325 160.333 54.1372 159.093 54.747C156.498 56.2971 154.553 58.7365 153.62 61.6123C150.543 71.6854 158.55 70.7555 158.55 70.7555V70.768Z" fill="black"/>
<path d="M161.003 38.8013C161.374 38.0283 161.908 37.3448 162.569 36.7979C160.722 35.5652 158.715 34.5928 156.603 33.9083C153.619 32.8972 149.051 32.7974 149.051 32.7974C149.051 32.7974 151.603 34.314 153.613 35.687C154.012 35.0629 155.935 34.47 157.557 35.6246C159.38 36.9228 158.725 39.0635 158.431 39.906C159.025 40.4247 159.578 40.9881 160.085 41.5911C160.223 40.6142 160.534 39.6696 161.003 38.8013Z" fill="white"/>
<path d="M170.439 29.8578C170.439 29.8578 172.717 27.5236 173.685 29.0027C174.215 29.8079 170.62 30.1886 170.439 29.8578Z" fill="black"/>
<path d="M75.7234 21.8813H68.6709V65.4882H75.7234V21.8813Z" fill="#0C0110"/>
<path d="M72.5972 77.7456C67.5669 77.7456 63.4228 76.7033 60.271 74.625C57.1192 72.5467 55.3779 69.3762 55.3779 65.2633V23.4539C55.3779 19.0852 56.6574 15.8086 59.1788 13.6928C61.9686 11.3025 66.5121 10.0854 72.6908 10.0854C78.4015 10.0854 82.7079 11.24 85.4976 13.5056C88.2874 15.7711 89.7666 19.1226 89.7666 23.3541V65.2134C89.7666 69.2389 88.1439 72.3782 84.9359 74.5751C81.728 76.772 77.6838 77.7456 72.5972 77.7456ZM72.5972 23.8534C72.0717 23.8131 71.5456 23.9235 71.0806 24.1717C71.0057 24.2279 70.7623 24.4151 70.7623 25.0579V64.7765C70.9246 64.7765 71.0931 64.7141 71.2491 64.6767C71.8176 64.5174 72.371 64.3085 72.903 64.0525C73.3312 63.7806 73.7144 63.4437 74.0389 63.054C74.2748 62.7208 74.3953 62.3198 74.3822 61.9118V25.0579C74.3922 24.8877 74.3637 24.7174 74.2989 24.5596C74.2341 24.4019 74.1345 24.2608 74.0077 24.1467C73.5766 23.9125 73.086 23.8104 72.5972 23.8534Z" fill="black"/>
<path d="M72.691 10.8283C78.1457 10.8283 82.3647 11.908 85.0297 14.0799C87.6946 16.2519 89.0302 19.335 89.0302 23.3543V65.2136C89.0302 68.9832 87.5261 71.8957 84.5179 73.9511C81.5097 75.992 77.4342 77.0155 72.5973 77.0155C67.7605 77.0155 63.7162 76.0232 60.6768 74.0385C57.6373 72.0539 56.1145 69.158 56.1145 65.3009V23.4541C56.1145 19.2934 57.2941 16.229 59.6532 14.2609C62.3182 11.9704 66.7369 10.8283 72.691 10.8283ZM70.0198 65.6005C70.4958 65.5813 70.9686 65.5123 71.4303 65.3946C72.0558 65.2249 72.6656 65.0015 73.2527 64.7268C73.7544 64.4151 74.2032 64.0253 74.582 63.5721C74.9471 63.1045 75.137 62.5238 75.1188 61.9307V25.0581C75.1341 24.7803 75.0859 24.5027 74.9777 24.2464C74.8696 23.9901 74.7043 23.7618 74.4946 23.579C73.9367 23.2266 73.2804 23.0625 72.6223 23.1109C71.937 23.0674 71.2543 23.2304 70.6626 23.579C70.4479 23.7577 70.2792 23.9852 70.1706 24.2426C70.062 24.5 70.0167 24.7796 70.0385 25.0581V65.6255L70.0198 65.6005ZM72.691 9.38037C66.3312 9.38037 61.6254 10.6286 58.6921 13.1687C56.0084 15.4218 54.6416 18.8919 54.6416 23.4853V65.3384C54.6416 69.7072 56.4016 73.04 59.8717 75.3242C63.142 77.4524 67.4234 78.5384 72.5973 78.5384C77.7712 78.5384 82.1026 77.4212 85.348 75.2181C88.7744 72.9026 90.5094 69.5511 90.5094 65.2697V23.3543C90.5094 18.8856 88.9803 15.3781 85.9596 12.9316C83.0388 10.5537 78.5764 9.38037 72.691 9.38037ZM71.5426 24.7835C71.8796 24.6585 72.2384 24.6033 72.5973 24.6212C72.9242 24.6015 73.2516 24.6504 73.5585 24.7648C73.6271 24.8209 73.6396 24.977 73.6396 25.0893V61.9307C73.6412 62.1479 73.5897 62.3621 73.4898 62.5548C73.2178 62.8772 72.9028 63.1607 72.5537 63.3974C72.2117 63.5565 71.8593 63.6921 71.4989 63.8031V25.0581C71.4928 24.9543 71.5076 24.8503 71.5426 24.7523V24.7835Z" fill="black"/>
<path d="M85.0294 14.0798C82.3645 11.9078 78.1642 10.8281 72.6907 10.8281C66.7367 10.8281 62.3179 11.9703 59.653 14.2607C57.2938 16.2413 56.1143 19.3057 56.1143 23.4539V65.307C56.1143 69.1432 57.635 72.0557 60.6765 74.0446C63.716 76.0293 67.754 77.0216 72.5971 77.0216C77.4402 77.0216 81.5094 75.9981 84.5177 73.9572C87.5259 71.9164 89.03 69.0017 89.03 65.2196V23.3541C89.03 19.3348 87.6965 16.2433 85.0294 14.0798ZM75.1185 61.9305C75.1368 62.5236 74.9469 63.1043 74.5818 63.5719C74.2029 64.0251 73.7542 64.4149 73.2524 64.7266C72.6653 65.0013 72.0556 65.2248 71.43 65.3944C70.9683 65.5121 70.4956 65.5812 70.0195 65.6003V25.0329C69.9977 24.7545 70.0431 24.4748 70.1516 24.2175C70.2602 23.9601 70.4289 23.7325 70.6436 23.5538C71.2353 23.2052 71.918 23.0422 72.6033 23.0857C73.2615 23.0373 73.9177 23.2014 74.4757 23.5538C74.6854 23.7366 74.8506 23.9649 74.9587 24.2212C75.0669 24.4775 75.1151 24.7552 75.0998 25.0329L75.1185 61.9305Z" fill="#0C0110"/>
<path d="M85.3165 14.7288C82.7265 11.6083 74.6692 10.8281 72.6907 10.8281C66.7367 10.8281 62.3179 11.9703 59.653 14.2607C57.2938 16.2392 56.1143 19.3036 56.1143 22.8548L56.6385 67.1668C57.8867 71.5356 63.8283 69.1578 63.9656 66.9921C64.9642 69.2264 66.8053 71.2423 71.8232 71.2423C74.3633 71.2423 77.7835 70.0253 79.1066 68.802C80.5982 67.429 82.1336 65.85 82.1336 62.8979V21.5754C84.7548 21.9249 90.0848 20.5393 85.3165 14.7288ZM76.1358 24.7458L75.2246 61.7059C75.2528 62.6744 74.9089 63.6169 74.2635 64.3396C73.4709 65.0386 69.6201 66.8361 68.8961 66.7737C68.1721 66.7112 66.1126 64.9013 63.7784 66.549C63.1543 65.7751 63.0419 63.6843 63.0419 62.5671V25.0579C62.9972 22.9204 63.7746 20.8472 65.2138 19.2661C66.8553 17.7433 69.7324 17.1067 72.8717 17.1067C77.9021 17.1067 81.3347 18.9166 81.8964 21.1572C81.2842 20.8888 80.6158 20.7736 79.9491 20.8217C79.2824 20.8698 78.6375 21.0796 78.0701 21.433C77.5028 21.7865 77.0301 22.2729 76.6931 22.8501C76.356 23.4274 76.1648 24.078 76.1358 24.7458Z" fill="#5E000E"/>
<path d="M72.6907 12.0576C77.8584 12.0576 81.8589 13.0874 84.2555 15.0346C86.6521 16.9819 87.7943 19.6905 87.7943 23.3541V65.2134C87.7943 68.5898 86.4961 71.1112 83.8311 72.9212C81.0351 74.7935 77.2592 75.7734 72.5971 75.7734C67.935 75.7734 64.1716 74.8372 61.3631 72.9961C58.6731 71.2485 57.3687 68.7334 57.3687 65.307V23.4539C57.3687 19.6468 58.3798 16.9507 60.4893 15.1907C62.9171 13.1124 67.0362 12.0701 72.7282 12.0701L72.6907 12.0576ZM68.8274 66.8485H70.0757C70.6529 66.8255 71.226 66.7418 71.7857 66.5989C72.5111 66.406 73.2172 66.1469 73.8952 65.825C74.5217 65.4509 75.0808 64.974 75.5492 64.4145C76.1299 63.7146 76.436 62.8272 76.4104 61.918V25.0579C76.4224 24.5957 76.3299 24.1367 76.1397 23.7152C75.9495 23.2938 75.6665 22.9207 75.312 22.6239C74.5369 22.0793 73.5984 21.8171 72.6533 21.8812C71.698 21.8358 70.752 22.0864 69.9446 22.5989C69.5784 22.8912 69.2876 23.2671 69.0965 23.6949C68.9054 24.1227 68.8196 24.5901 68.8462 25.0579V66.8361L68.8274 66.8485ZM72.6907 10.8281C66.7367 10.8281 62.3179 11.9703 59.653 14.2607C57.2938 16.2413 56.1143 19.3057 56.1143 23.4539V65.307C56.1143 69.1432 57.635 72.0557 60.6765 74.0446C63.716 76.0293 67.754 77.0216 72.5971 77.0216C77.4402 77.0216 81.5094 75.9981 84.5177 73.9572C87.5259 71.9164 89.03 69.0017 89.03 65.2196V23.3541C89.03 19.3348 87.6965 16.2433 85.0294 14.0798C82.3645 11.9078 78.1642 10.8281 72.6907 10.8281ZM70.0195 65.6003V25.0329C69.9977 24.7545 70.0431 24.4748 70.1516 24.2175C70.2602 23.9601 70.4289 23.7325 70.6436 23.5538C71.2353 23.2052 71.918 23.0422 72.6033 23.0857C73.2615 23.0373 73.9177 23.2014 74.4757 23.5538C74.6854 23.7366 74.8506 23.9649 74.9587 24.2212C75.0669 24.4775 75.1151 24.7552 75.0998 25.0329V61.9305C75.1181 62.5236 74.9282 63.1043 74.563 63.5719C74.1842 64.0251 73.7354 64.4149 73.2337 64.7266C72.6466 65.0013 72.0369 65.2248 71.4113 65.3944C70.9496 65.5121 70.4769 65.5812 70.0008 65.6003H70.0195Z" fill="white"/>
<path d="M100.632 86.9703C95.4767 86.9703 90.9831 85.9093 87.9811 83.9808C86.3617 83.0038 85.03 81.6154 84.1212 79.9569C83.2124 78.2983 82.759 76.4286 82.8072 74.538V32.6849C82.8072 28.3161 84.0554 25.0458 86.6018 22.9238C89.3791 20.6021 94.3783 19.3164 100.682 19.3164C105.282 19.3164 111.254 20.2713 114.219 22.955C116.541 25.077 117.72 27.9853 117.72 31.5927V49.486L116.472 48.4001C114.797 47.0297 112.896 45.9611 110.855 45.2421C108.184 44.2997 104.345 44.2248 103.234 44.2248H102.972H102.223V31.9921L101.799 32.0733C101.27 32.1802 100.753 32.3412 100.257 32.5538C99.8065 32.769 99.4049 33.0749 99.0778 33.4526C98.777 33.8791 98.5901 34.3753 98.5349 34.8943V71.5859C98.5378 71.7696 98.5793 71.9507 98.6567 72.1174C98.7341 72.284 98.8457 72.4325 98.9842 72.5533C99.4267 72.8103 99.9268 72.952 100.438 72.9652C100.967 72.987 101.483 72.7985 101.874 72.4409C101.991 72.3329 102.084 72.2002 102.144 72.0524C102.204 71.9046 102.232 71.7454 102.223 71.5859V60.3082H102.966C105.171 60.294 107.37 60.0852 109.538 59.6841C111.973 59.039 114.354 58.2043 116.659 57.1876L117.695 56.7382V75.9859C117.695 78.757 116.353 81.2285 113.701 83.3442C110.424 86.0279 104.607 86.9703 100.632 86.9703Z" fill="black"/>
<path d="M100.681 20.0592C105.818 20.0592 111.185 21.2076 113.725 23.4981C115.897 25.489 116.977 28.1789 116.977 31.6116V47.8385C115.235 46.4042 113.253 45.2887 111.123 44.5432C108.327 43.5509 104.326 43.4822 103.259 43.4822H102.984V31.1497C102.543 31.183 102.105 31.2498 101.674 31.3495C101.082 31.4687 100.505 31.6507 99.9513 31.8924C99.4087 32.152 98.9261 32.5218 98.5345 32.9784C98.1243 33.5387 97.878 34.2021 97.823 34.8944V71.586C97.8255 71.8757 97.889 72.1617 98.0094 72.4252C98.1299 72.6886 98.3046 72.9237 98.5221 73.1151C99.101 73.4894 99.7737 73.6927 100.463 73.7018C100.829 73.7155 101.193 73.6545 101.535 73.5226C101.876 73.3906 102.187 73.1903 102.448 72.9341C102.625 72.7584 102.764 72.548 102.857 72.316C102.949 72.0841 102.992 71.8356 102.984 71.586V61.051C105.231 61.0409 107.472 60.8321 109.681 60.4269C112.459 59.8527 116.946 57.8867 116.946 57.8867V75.986C116.946 78.5262 115.698 80.7855 113.232 82.7701C110.374 85.0606 105.119 86.2028 100.6 86.2028C95.7697 86.2028 91.326 85.2416 88.349 83.3256C86.8346 82.4151 85.589 81.119 84.7392 79.5697C83.8894 78.0204 83.466 76.2733 83.5121 74.5069V32.685C83.5121 28.5347 84.6979 25.4703 87.0446 23.4918C89.7782 21.2014 94.7025 20.0592 100.65 20.0592H100.681ZM100.65 18.5801C92.3496 18.5801 88.168 20.6334 86.096 22.356C83.3998 24.6277 82.033 28.0978 82.033 32.685V74.5381C81.9818 76.5507 82.4641 78.5409 83.4309 80.3068C84.3977 82.0727 85.8146 83.5514 87.5377 84.5926C90.6582 86.6085 95.3016 87.7131 100.6 87.7131C104.695 87.7131 110.705 86.727 114.156 83.9685C116.99 81.7092 118.425 79.0379 118.425 76.036V55.6399L116.378 56.5449C114.121 57.5397 111.79 58.3577 109.407 58.9914C107.295 59.3681 105.155 59.5623 103.009 59.5719H101.53L101.499 61.051V71.586C101.499 71.7483 101.499 71.767 101.343 71.948C101.092 72.1463 100.777 72.2461 100.457 72.2289C100.115 72.2099 99.7803 72.1251 99.4707 71.9792C99.3642 71.8754 99.3017 71.7347 99.296 71.586V34.8944C99.3485 34.5572 99.4695 34.2343 99.6517 33.9457C99.9156 33.6368 100.241 33.386 100.607 33.2093C100.895 33.0846 101.194 32.9844 101.499 32.9097V44.9926H103.009H103.272C104.039 44.9926 108.021 45.0362 110.642 45.9662C112.593 46.6493 114.409 47.6673 116.01 48.9744L118.469 51.1651V31.5928C118.469 27.767 117.221 24.6777 114.724 22.4121C111.603 19.5849 105.419 18.5801 100.681 18.5801H100.65Z" fill="black"/>
<path d="M100.682 20.0591C94.7338 20.0591 89.8095 21.2012 87.0759 23.4917C84.7292 25.4701 83.5434 28.5345 83.5434 32.6849V74.538C83.4973 76.3044 83.9207 78.0515 84.7705 79.6008C85.6203 81.1501 86.8659 82.4462 88.3803 83.3567C91.3573 85.2727 95.801 86.2339 100.632 86.2339C105.156 86.2339 110.405 85.0917 113.264 82.8012C115.76 80.8166 116.977 78.5572 116.977 76.0171V57.9178C116.977 57.9178 112.49 59.8838 109.713 60.458C107.493 60.8638 105.241 61.0727 102.985 61.0821V71.6171C102.993 71.8666 102.949 72.1151 102.857 72.3471C102.764 72.579 102.625 72.7894 102.448 72.9652C102.187 73.2214 101.876 73.4216 101.535 73.5536C101.193 73.6856 100.829 73.7466 100.463 73.7328C99.7738 73.7238 99.1011 73.5205 98.5222 73.1462C98.3047 72.9548 98.13 72.7197 98.0095 72.4562C97.8891 72.1927 97.8256 71.9068 97.8231 71.6171V34.8943C97.8781 34.202 98.1244 33.5386 98.5346 32.9782C98.9262 32.5217 99.4088 32.1518 99.9514 31.8923C100.505 31.6505 101.082 31.4685 101.674 31.3493C102.105 31.2496 102.543 31.1829 102.985 31.1496V43.4883C102.985 43.4883 107.871 43.3947 111.098 44.5493C113.271 45.3256 115.262 46.536 116.952 48.1067V31.5927C116.952 28.1788 115.873 25.4889 113.701 23.4792C111.185 21.2387 105.818 20.0591 100.682 20.0591Z" fill="black"/>
<path d="M102.985 61.0509V71.0367C102.985 71.536 103.054 72.6594 102.561 73.1399C101.825 73.8611 100.874 74.3215 99.8522 74.4506C96.5132 75.1059 91.9946 73.0526 91.2207 76.2231C90.8774 75.4863 90.7005 74.683 90.7027 73.8701V34.4012C90.7027 26.4563 95.4959 25.4514 101.519 25.4514C106.867 25.4514 109.214 26.6248 110.113 30.1822C108.128 28.7155 103.778 29.4645 103.778 30.6378L103.004 43.2948L103.472 42.9079C106.817 40.2055 110.337 37.7527 110.337 37.7527V30.7314C114.413 31.6738 117.777 27.6109 113.708 23.498C111.292 21.0764 105.8 20.0591 100.664 20.0591C94.7158 20.0591 89.7915 21.2012 87.0579 23.4917C84.7112 25.4701 83.5254 28.5345 83.5254 32.6849L83.6253 75.3555C85.1793 77.9893 90.3594 78.707 91.3081 76.6475C92.5563 78.3138 95.3399 79.8866 100.239 79.8866C104.745 79.8866 109.638 77.309 109.638 74.2197V65.5882L116.909 58.6855C116.909 58.6855 112.491 59.89 109.713 60.4642C107.492 60.8575 105.241 61.0538 102.985 61.0509Z" fill="#5E000E"/>
<path d="M100.682 21.2888C106 21.2888 110.799 22.537 112.896 24.4093C114.812 26.1693 115.748 28.516 115.748 31.5929V45.5793C114.444 44.679 113.028 43.953 111.536 43.4198C109.162 42.7035 106.7 42.3273 104.221 42.3027V29.914H102.973C102.446 29.9378 101.923 30.0152 101.412 30.1449C100.715 30.2776 100.035 30.4869 99.384 30.769C98.6997 31.1055 98.0905 31.5768 97.5928 32.1546C96.9897 32.9392 96.6373 33.8876 96.5818 34.8757V71.5674C96.5842 72.0319 96.685 72.4906 96.8776 72.9134C97.0701 73.3362 97.3501 73.7134 97.6989 74.0201C98.5075 74.5935 99.4725 74.905 100.464 74.9126C101.004 74.9288 101.543 74.8317 102.043 74.6275C102.544 74.4233 102.997 74.1164 103.372 73.7268C103.649 73.4394 103.867 73.1002 104.012 72.7285C104.158 72.3569 104.229 71.9602 104.221 71.5611V62.2618C106.148 62.2044 108.068 61.9958 109.963 61.6377C111.936 61.1623 113.87 60.5363 115.748 59.7654V76.036C115.748 78.2079 114.687 80.1052 112.497 81.859C110.138 83.7313 105.369 85.017 100.639 85.017C95.9077 85.017 91.7387 84.0683 89.0612 82.3458C87.7172 81.5484 86.6116 80.4052 85.8597 79.0353C85.1077 77.6653 84.737 76.1188 84.786 74.5568V32.6851C84.786 28.9404 85.822 26.1631 87.8754 24.4343C90.2969 22.4059 94.8467 21.3137 100.688 21.3137L100.682 21.2888ZM100.688 20.0655C94.7406 20.0655 89.8164 21.2076 87.0828 23.4981C84.7361 25.4766 83.5503 28.541 83.5503 32.6913V74.5381C83.5041 76.3046 83.9276 78.0516 84.7773 79.6009C85.6271 81.1502 86.8728 82.4463 88.3872 83.3568C91.3642 85.2729 95.8079 86.234 100.639 86.234C105.163 86.234 110.412 85.0919 113.271 82.8014C115.767 80.8167 116.984 78.5574 116.984 76.0173V57.918C116.984 57.918 112.497 59.8839 109.719 60.4581C107.51 60.8633 105.269 61.0722 103.023 61.0822V71.6173C103.031 71.8668 102.987 72.1153 102.895 72.3472C102.802 72.5792 102.663 72.7896 102.486 72.9654C102.225 73.2216 101.914 73.4218 101.573 73.5538C101.231 73.6858 100.867 73.7468 100.501 73.733C99.8119 73.724 99.1391 73.5206 98.5602 73.1464C98.3427 72.955 98.168 72.7199 98.0476 72.4564C97.9271 72.1929 97.8636 71.907 97.8612 71.6173V34.8944C97.9161 34.2021 98.1625 33.5388 98.5727 32.9784C98.9643 32.5218 99.4468 32.152 99.9894 31.8925C100.543 31.6507 101.12 31.4687 101.712 31.3495C102.143 31.2498 102.581 31.183 103.023 31.1498V43.4885H103.272C104.34 43.4885 108.34 43.5571 111.136 44.5495C113.309 45.3258 115.3 46.5362 116.99 48.1069V31.5929C116.99 28.179 115.911 25.489 113.739 23.4794C111.199 21.1889 105.831 20.0405 100.695 20.0405L100.688 20.0655Z" fill="white"/>
<defs>
<linearGradient id="paint0_linear" x1="83.3545" y1="53.5199" x2="110.035" y2="-4.61745" gradientUnits="userSpaceOnUse">
<stop offset="0.01" stop-color="#E0E1E2"/>
<stop offset="1" stop-color="white"/>
</linearGradient>
</defs>
</svg>
